<mxfile host="app.diagrams.net" agent="Mozilla/5.0 (Windows NT 10.0; Win64; x64) AppleWebKit/537.36 (KHTML, like Gecko) Chrome/128.0.0.0 Safari/537.36 OPR/114.0.0.0" version="24.8.3">
  <diagram name="PÃ¡gina-1" id="2m92nMR8I-ZJ7PbMSSst">
    <mxGraphModel dx="2296" dy="644" grid="1" gridSize="10" guides="1" tooltips="1" connect="1" arrows="1" fold="1" page="1" pageScale="1" pageWidth="827" pageHeight="1169" math="0" shadow="0">
      <root>
        <mxCell id="0" />
        <mxCell id="1" parent="0" />
        <mxCell id="uyf7VYPV3faLLoa0Pt8u-5" style="edgeStyle=orthogonalEdgeStyle;rounded=0;orthogonalLoop=1;jettySize=auto;html=1;entryX=0.5;entryY=0;entryDx=0;entryDy=0;" edge="1" parent="1" source="uyf7VYPV3faLLoa0Pt8u-2" target="uyf7VYPV3faLLoa0Pt8u-3">
          <mxGeometry relative="1" as="geometry" />
        </mxCell>
        <mxCell id="uyf7VYPV3faLLoa0Pt8u-6" style="edgeStyle=orthogonalEdgeStyle;rounded=0;orthogonalLoop=1;jettySize=auto;html=1;entryX=0.5;entryY=0;entryDx=0;entryDy=0;" edge="1" parent="1" source="uyf7VYPV3faLLoa0Pt8u-2" target="uyf7VYPV3faLLoa0Pt8u-4">
          <mxGeometry relative="1" as="geometry" />
        </mxCell>
        <mxCell id="uyf7VYPV3faLLoa0Pt8u-2" value="ProyectoXYZ" style="rounded=1;whiteSpace=wrap;html=1;" vertex="1" parent="1">
          <mxGeometry x="180" y="40" width="120" height="60" as="geometry" />
        </mxCell>
        <mxCell id="uyf7VYPV3faLLoa0Pt8u-11" style="edgeStyle=orthogonalEdgeStyle;rounded=0;orthogonalLoop=1;jettySize=auto;html=1;" edge="1" parent="1" source="uyf7VYPV3faLLoa0Pt8u-3" target="uyf7VYPV3faLLoa0Pt8u-7">
          <mxGeometry relative="1" as="geometry" />
        </mxCell>
        <mxCell id="uyf7VYPV3faLLoa0Pt8u-12" style="edgeStyle=orthogonalEdgeStyle;rounded=0;orthogonalLoop=1;jettySize=auto;html=1;entryX=0.5;entryY=0;entryDx=0;entryDy=0;" edge="1" parent="1" source="uyf7VYPV3faLLoa0Pt8u-3" target="uyf7VYPV3faLLoa0Pt8u-8">
          <mxGeometry relative="1" as="geometry" />
        </mxCell>
        <mxCell id="uyf7VYPV3faLLoa0Pt8u-13" style="edgeStyle=orthogonalEdgeStyle;rounded=0;orthogonalLoop=1;jettySize=auto;html=1;entryX=0.5;entryY=0;entryDx=0;entryDy=0;" edge="1" parent="1" source="uyf7VYPV3faLLoa0Pt8u-3" target="uyf7VYPV3faLLoa0Pt8u-10">
          <mxGeometry relative="1" as="geometry" />
        </mxCell>
        <mxCell id="uyf7VYPV3faLLoa0Pt8u-3" value="loginsXYZ" style="whiteSpace=wrap;html=1;aspect=fixed;" vertex="1" parent="1">
          <mxGeometry x="-220" y="230" width="80" height="80" as="geometry" />
        </mxCell>
        <mxCell id="uyf7VYPV3faLLoa0Pt8u-20" style="edgeStyle=orthogonalEdgeStyle;rounded=0;orthogonalLoop=1;jettySize=auto;html=1;" edge="1" parent="1" source="uyf7VYPV3faLLoa0Pt8u-4" target="uyf7VYPV3faLLoa0Pt8u-19">
          <mxGeometry relative="1" as="geometry" />
        </mxCell>
        <mxCell id="uyf7VYPV3faLLoa0Pt8u-21" style="edgeStyle=orthogonalEdgeStyle;rounded=0;orthogonalLoop=1;jettySize=auto;html=1;entryX=0.5;entryY=0;entryDx=0;entryDy=0;" edge="1" parent="1" source="uyf7VYPV3faLLoa0Pt8u-4" target="uyf7VYPV3faLLoa0Pt8u-15">
          <mxGeometry relative="1" as="geometry" />
        </mxCell>
        <mxCell id="uyf7VYPV3faLLoa0Pt8u-22" style="edgeStyle=orthogonalEdgeStyle;rounded=0;orthogonalLoop=1;jettySize=auto;html=1;entryX=0.5;entryY=0;entryDx=0;entryDy=0;" edge="1" parent="1" source="uyf7VYPV3faLLoa0Pt8u-4" target="uyf7VYPV3faLLoa0Pt8u-14">
          <mxGeometry relative="1" as="geometry" />
        </mxCell>
        <mxCell id="uyf7VYPV3faLLoa0Pt8u-23" style="edgeStyle=orthogonalEdgeStyle;rounded=0;orthogonalLoop=1;jettySize=auto;html=1;entryX=0.5;entryY=0;entryDx=0;entryDy=0;" edge="1" parent="1" source="uyf7VYPV3faLLoa0Pt8u-4" target="uyf7VYPV3faLLoa0Pt8u-9">
          <mxGeometry relative="1" as="geometry" />
        </mxCell>
        <mxCell id="uyf7VYPV3faLLoa0Pt8u-24" style="edgeStyle=orthogonalEdgeStyle;rounded=0;orthogonalLoop=1;jettySize=auto;html=1;entryX=0.5;entryY=0;entryDx=0;entryDy=0;" edge="1" parent="1" source="uyf7VYPV3faLLoa0Pt8u-4" target="uyf7VYPV3faLLoa0Pt8u-16">
          <mxGeometry relative="1" as="geometry" />
        </mxCell>
        <mxCell id="uyf7VYPV3faLLoa0Pt8u-25" style="edgeStyle=orthogonalEdgeStyle;rounded=0;orthogonalLoop=1;jettySize=auto;html=1;entryX=0.5;entryY=0;entryDx=0;entryDy=0;" edge="1" parent="1" source="uyf7VYPV3faLLoa0Pt8u-4" target="uyf7VYPV3faLLoa0Pt8u-17">
          <mxGeometry relative="1" as="geometry" />
        </mxCell>
        <mxCell id="uyf7VYPV3faLLoa0Pt8u-26" style="edgeStyle=orthogonalEdgeStyle;rounded=0;orthogonalLoop=1;jettySize=auto;html=1;entryX=0.5;entryY=0;entryDx=0;entryDy=0;" edge="1" parent="1" source="uyf7VYPV3faLLoa0Pt8u-4" target="uyf7VYPV3faLLoa0Pt8u-18">
          <mxGeometry relative="1" as="geometry" />
        </mxCell>
        <mxCell id="uyf7VYPV3faLLoa0Pt8u-4" value="historias" style="whiteSpace=wrap;html=1;aspect=fixed;" vertex="1" parent="1">
          <mxGeometry x="640" y="230" width="80" height="80" as="geometry" />
        </mxCell>
        <mxCell id="uyf7VYPV3faLLoa0Pt8u-7" value="loginame" style="ellipse;whiteSpace=wrap;html=1;aspect=fixed;" vertex="1" parent="1">
          <mxGeometry x="-220" y="370" width="80" height="80" as="geometry" />
        </mxCell>
        <mxCell id="uyf7VYPV3faLLoa0Pt8u-8" value="loginpass" style="ellipse;whiteSpace=wrap;html=1;aspect=fixed;" vertex="1" parent="1">
          <mxGeometry x="-70" y="370" width="80" height="80" as="geometry" />
        </mxCell>
        <mxCell id="uyf7VYPV3faLLoa0Pt8u-9" value="organizacion" style="ellipse;whiteSpace=wrap;html=1;aspect=fixed;" vertex="1" parent="1">
          <mxGeometry x="640" y="370" width="80" height="80" as="geometry" />
        </mxCell>
        <mxCell id="uyf7VYPV3faLLoa0Pt8u-10" value="loginid" style="ellipse;whiteSpace=wrap;html=1;aspect=fixed;" vertex="1" parent="1">
          <mxGeometry x="-380" y="370" width="80" height="80" as="geometry" />
        </mxCell>
        <mxCell id="uyf7VYPV3faLLoa0Pt8u-14" value="texto" style="ellipse;whiteSpace=wrap;html=1;aspect=fixed;" vertex="1" parent="1">
          <mxGeometry x="510" y="370" width="80" height="80" as="geometry" />
        </mxCell>
        <mxCell id="uyf7VYPV3faLLoa0Pt8u-15" value="titulo" style="ellipse;whiteSpace=wrap;html=1;aspect=fixed;" vertex="1" parent="1">
          <mxGeometry x="374" y="370" width="80" height="80" as="geometry" />
        </mxCell>
        <mxCell id="uyf7VYPV3faLLoa0Pt8u-16" value="Clasificacion" style="ellipse;whiteSpace=wrap;html=1;aspect=fixed;" vertex="1" parent="1">
          <mxGeometry x="780" y="370" width="80" height="80" as="geometry" />
        </mxCell>
        <mxCell id="uyf7VYPV3faLLoa0Pt8u-17" value="fecha" style="ellipse;whiteSpace=wrap;html=1;aspect=fixed;" vertex="1" parent="1">
          <mxGeometry x="910" y="370" width="80" height="80" as="geometry" />
        </mxCell>
        <mxCell id="uyf7VYPV3faLLoa0Pt8u-18" value="usuario" style="ellipse;whiteSpace=wrap;html=1;aspect=fixed;" vertex="1" parent="1">
          <mxGeometry x="1030" y="370" width="80" height="80" as="geometry" />
        </mxCell>
        <mxCell id="uyf7VYPV3faLLoa0Pt8u-19" value="idhistoria" style="ellipse;whiteSpace=wrap;html=1;aspect=fixed;" vertex="1" parent="1">
          <mxGeometry x="240" y="370" width="80" height="80" as="geometry" />
        </mxCell>
      </root>
    </mxGraphModel>
  </diagram>
</mxfile>
